<svg xmlns="http://www.w3.org/2000/svg" viewBox="0 0 60 60">
  <polygon points="58.00,30.00 51.58,34.29 55.87,40.72 48.29,42.22 49.80,49.80 42.22,48.29 40.72,55.87 34.29,51.58 30.00,58.00 25.71,51.58 19.28,55.87 17.78,48.29 10.20,49.80 11.71,42.22 4.13,40.72 8.42,34.29 2.00,30.00 8.42,25.71 4.13,19.28 11.71,17.78 10.20,10.20 17.78,11.71 19.28,4.13 25.71,8.42 30.00,2.00 34.29,8.42 40.72,4.13 42.22,11.71 49.80,10.20 48.29,17.78 55.87,19.28 51.58,25.71" fill="none" stroke="#000" stroke-width="2" stroke-linejoin="round"/>
  <circle cx="30" cy="30" r="6" fill="none" stroke="#000" stroke-width="2"/>
</svg>