<?xml version="1.0" encoding="UTF-8"?>
<svg xmlns="http://www.w3.org/2000/svg" width="320" height="140" viewBox="0 0 320 140" fill="none">
  <style>
    .word { font-family: 'Merriweather', serif; font-weight: 700; font-size: 48px; fill: #ffffff; }
  </style>

  <text x="0" y="47" class="word">Pila</text>

  <text x="0" y="100" class="word">Zach</text>

  <g transform="translate(144,76)">
    <path d="M 30.00 0.00 L 23.70 3.75 L 28.53 9.27 L 21.38 10.90 L 24.27 17.63 L 16.97 16.97 L 17.63 24.27 L 10.90 21.38 L 9.27 28.53 L 3.75 23.70 L 0.00 30.00 L -3.75 23.70 L -9.27 28.53 L -10.90 21.38 L -17.63 24.27 L -16.97 16.97 L -24.27 17.63 L -21.38 10.90 L -28.53 9.27 L -23.70 3.75 L -30.00 0.00 L -23.70 -3.75 L -28.53 -9.27 L -21.38 -10.90 L -24.27 -17.63 L -16.97 -16.97 L -17.63 -24.27 L -10.90 -21.38 L -9.27 -28.53 L -3.75 -23.70 L -0.00 -30.00 L 3.75 -23.70 L 9.27 -28.53 L 10.90 -21.38 L 17.63 -24.27 L 16.97 -16.97 L 24.27 -17.63 L 21.38 -10.90 L 28.53 -9.27 L 23.70 -3.75 Z M 10 0 A 10 10 0 1 0 -10 0 A 10 10 0 1 0 10 0 Z" fill="#ffffff" fill-rule="evenodd"/>
  </g>

  <text x="178" y="100" class="word">tín</text>
</svg>
